<mxfile host="app.diagrams.net" modified="2023-07-05T09:44:25.471Z" agent="Mozilla/5.0 (Macintosh; Intel Mac OS X 10_15_7) AppleWebKit/537.36 (KHTML, like Gecko) Chrome/114.0.0.0 Safari/537.36" etag="9Z3sbfunszDdb0O1Niog" version="21.5.2" type="github">
  <diagram name="第 1 页" id="BupNse7iViKritc7MUyU">
    <mxGraphModel dx="954" dy="497" grid="1" gridSize="10" guides="1" tooltips="1" connect="1" arrows="1" fold="1" page="1" pageScale="1" pageWidth="827" pageHeight="1169" math="0" shadow="0">
      <root>
        <mxCell id="0" />
        <mxCell id="1" parent="0" />
        <mxCell id="D9XbA1xjYA6Hx2A3sFwS-1" value="" style="rounded=0;whiteSpace=wrap;html=1;" vertex="1" parent="1">
          <mxGeometry x="40" y="100" width="170" height="120" as="geometry" />
        </mxCell>
        <mxCell id="D9XbA1xjYA6Hx2A3sFwS-2" value="issue 1" style="rounded=1;whiteSpace=wrap;html=1;" vertex="1" parent="1">
          <mxGeometry x="120" y="117.5" width="70" height="30" as="geometry" />
        </mxCell>
        <mxCell id="D9XbA1xjYA6Hx2A3sFwS-3" value="issue 2" style="rounded=1;whiteSpace=wrap;html=1;" vertex="1" parent="1">
          <mxGeometry x="120" y="172.5" width="70" height="30" as="geometry" />
        </mxCell>
        <mxCell id="D9XbA1xjYA6Hx2A3sFwS-4" value="Q2 OKR" style="text;strokeColor=none;align=center;fillColor=none;html=1;verticalAlign=middle;whiteSpace=wrap;rounded=0;" vertex="1" parent="1">
          <mxGeometry x="50" y="145" width="60" height="30" as="geometry" />
        </mxCell>
        <mxCell id="D9XbA1xjYA6Hx2A3sFwS-5" value="" style="rounded=0;whiteSpace=wrap;html=1;" vertex="1" parent="1">
          <mxGeometry x="40" y="240" width="170" height="60" as="geometry" />
        </mxCell>
        <mxCell id="D9XbA1xjYA6Hx2A3sFwS-6" value="issue 3" style="rounded=1;whiteSpace=wrap;html=1;" vertex="1" parent="1">
          <mxGeometry x="120" y="257.5" width="70" height="30" as="geometry" />
        </mxCell>
        <mxCell id="D9XbA1xjYA6Hx2A3sFwS-8" value="日常分析" style="text;strokeColor=none;align=center;fillColor=none;html=1;verticalAlign=middle;whiteSpace=wrap;rounded=0;" vertex="1" parent="1">
          <mxGeometry x="50" y="257.5" width="60" height="30" as="geometry" />
        </mxCell>
        <mxCell id="D9XbA1xjYA6Hx2A3sFwS-9" value="RootCause" style="rounded=0;whiteSpace=wrap;html=1;" vertex="1" parent="1">
          <mxGeometry x="330" y="175" width="120" height="60" as="geometry" />
        </mxCell>
        <mxCell id="D9XbA1xjYA6Hx2A3sFwS-17" value="" style="endArrow=classic;html=1;rounded=0;entryX=0;entryY=0.583;entryDx=0;entryDy=0;exitX=1;exitY=0.5;exitDx=0;exitDy=0;entryPerimeter=0;" edge="1" parent="1" source="D9XbA1xjYA6Hx2A3sFwS-5" target="D9XbA1xjYA6Hx2A3sFwS-9">
          <mxGeometry width="50" height="50" relative="1" as="geometry">
            <mxPoint x="210" y="280" as="sourcePoint" />
            <mxPoint x="260" y="230" as="targetPoint" />
          </mxGeometry>
        </mxCell>
        <mxCell id="D9XbA1xjYA6Hx2A3sFwS-18" value="" style="endArrow=classic;html=1;rounded=0;exitX=1;exitY=0.5;exitDx=0;exitDy=0;entryX=0;entryY=0.5;entryDx=0;entryDy=0;" edge="1" parent="1" source="D9XbA1xjYA6Hx2A3sFwS-1" target="D9XbA1xjYA6Hx2A3sFwS-9">
          <mxGeometry width="50" height="50" relative="1" as="geometry">
            <mxPoint x="220" y="280" as="sourcePoint" />
            <mxPoint x="320" y="200" as="targetPoint" />
          </mxGeometry>
        </mxCell>
        <mxCell id="D9XbA1xjYA6Hx2A3sFwS-19" value="RD确认" style="text;html=1;align=center;verticalAlign=middle;resizable=0;points=[];autosize=1;strokeColor=none;fillColor=none;" vertex="1" parent="1">
          <mxGeometry x="245" y="147.5" width="60" height="30" as="geometry" />
        </mxCell>
        <mxCell id="D9XbA1xjYA6Hx2A3sFwS-20" value="TE确认" style="text;html=1;align=center;verticalAlign=middle;resizable=0;points=[];autosize=1;strokeColor=none;fillColor=none;" vertex="1" parent="1">
          <mxGeometry x="245" y="250" width="60" height="30" as="geometry" />
        </mxCell>
      </root>
    </mxGraphModel>
  </diagram>
</mxfile>
